<svg width="2331" height="2444" viewBox="0 0 2331 2444" fill="none" xmlns="http://www.w3.org/2000/svg">
<path fill-rule="evenodd" clip-rule="evenodd" d="M1372.44 1266.32C1487.64 1185.76 1631.3 1145.98 1779.88 1163.29C1902.31 1267.2 1951.27 1466.37 1943.72 1672.67C1942.67 1701.39 1940.52 1730.21 1937.31 1758.92L1632.89 1703.68C1634.09 1660.61 1629.03 1616.76 1617.39 1573.6C1585.84 1456.59 1506.17 1344.5 1372.44 1266.32ZM1135.99 1613.5C1164.86 1492.63 1229.5 1388.59 1316.48 1310.69C1447.75 1379.83 1524.67 1483.06 1553.69 1590.65C1562.75 1624.23 1567.16 1658.23 1567.12 1691.75L1135.99 1613.5ZM1198.65 2047.07C1136.29 1938.88 1107.66 1810.55 1124.19 1678.54L1561.19 1757.85C1560.08 1763.99 1558.8 1770.09 1557.38 1776.16C1543.51 1835.23 1515.06 1889.94 1473.27 1934.41C1410.78 2000.91 1317.94 2044.88 1198.65 2047.07ZM1621.28 2336.89C1616.24 2336.11 1611.2 2335.26 1606.15 2334.35C1454.83 2306.88 1327.45 2224.18 1241.02 2110.8C1360.02 2099.73 1454.65 2050.44 1521.23 1979.59C1571.16 1926.45 1605.1 1861.34 1621.56 1791.21C1623.24 1784.06 1624.74 1776.87 1626.04 1769.62L1928.14 1824.44C1921.06 1866.41 1911.75 1907.75 1900.36 1947.69C1875.49 2034.87 1840.81 2115.27 1797.86 2181.15C1748.8 2256.43 1689.06 2312.49 1621.28 2336.89V2336.89ZM2129.23 2171.87C2027.21 2273.01 1889.73 2335.89 1741.73 2343.23C1783.04 2310.22 1820.3 2267.3 1853 2217.14C1899.69 2145.52 1937.14 2058.98 1963.73 1965.75C1975.73 1923.7 1985.54 1880.27 1993.02 1836.21L2144.3 1863.66C2138.23 1894.46 2133.47 1925.39 2130.06 1956.22C2121.97 2029.56 2121.53 2102.47 2129.23 2171.87V2171.87ZM2287.82 1889.71C2269.1 1968.1 2235.33 2039.41 2190.18 2101.11C2188.64 2056.2 2190.5 2010.07 2195.62 1963.66C2198.87 1934.26 2203.42 1904.79 2209.24 1875.45L2287.82 1889.71ZM2291.3 1628.34C2263.3 1686.21 2240.78 1747.87 2224.12 1810.97L2299.62 1824.67C2308.01 1757.55 2304.75 1691.4 2291.3 1628.34V1628.34ZM1890.03 1186.72C2065.54 1241.83 2200.79 1374.05 2264.36 1538C2218.25 1618.13 2182.77 1707.31 2158.99 1799.14L2002.36 1770.73C2006.04 1738.91 2008.49 1706.97 2009.65 1675.18C2016.39 1491.15 1980 1311 1890.03 1186.72V1186.72ZM1164.09 1205.5C947.974 1288.89 697.368 1171.64 580.582 979.928L555.05 938.019C708.283 1044.63 878.243 1124.91 1057.91 1175.55L1164.09 1205.5ZM1039.09 1856.63C926.768 1953.03 750.804 1935.97 639.506 1845.48L615.18 1825.69C730.236 1857.15 849.737 1869.18 968.749 1861.29L1039.09 1856.63ZM1527.57 1099.67C1410.19 1151.84 1268.16 1093.84 1198.17 990.897L1182.87 968.396C1270.69 1023.2 1367.03 1062.96 1467.94 1086.03L1527.57 1099.67ZM2191.02 1266.01C2040.75 1040.27 1822.93 926.962 1610.76 898.195C1333.9 860.662 1076.97 733.408 879.329 535.933C781.35 438.046 703.85 321.619 651.342 193.464L648.812 318.403C644.629 524.236 712.427 725.085 840.494 886.282L703.669 818.515C388.961 662.648 181.319 350.729 158.941 0.248548L105.698 158.95C-66.9154 673.285 124.247 1239.63 573.253 1544.15L485.03 1536.68C330.796 1523.59 187.25 1452.51 83.3822 1337.75L117.757 1456.23C227.56 1834.73 546.542 2115.45 935.931 2176.24C1079.1 2198.6 1185.57 2232.19 1296.08 2293.79C1249.5 2258.04 1206.93 2215.74 1169.83 2167.18L1129.05 2136.38C1045.96 2073.62 950.82 2028.68 849.58 2004.36C635.901 1953.05 459.275 1803.33 373.644 1600.95L408.943 1625.35C504.857 1691.66 610.994 1741.8 723.134 1773.76C733.657 1776.77 744.21 1779.62 754.817 1782.31C819.515 1798.75 881.177 1789.35 938.053 1754.39C986.035 1724.89 1019.32 1684.12 1037.28 1632.95C885.21 1626.76 742.92 1552.75 650.599 1429.86L624.828 1395.56C756.7 1460.53 904.117 1487.28 1050.41 1472.79L1090.79 1468.79C748.755 1376.25 469.343 1126.09 340.775 793.033L307.452 706.705C553.987 904.889 843.96 1041.87 1153.62 1106.43L1214.58 1119.13C1133.99 1034.48 1067.03 937.827 1016.09 832.638L978.239 754.475C1150.68 912.207 1366.68 1014.24 1598.03 1047.25L1776.81 1072.77L1776.77 1072.78C1930.05 1087.54 2077.38 1153.8 2191.01 1266.02L2191.02 1266.01Z" fill="#E47041"/>
</svg>
