<svg width="1016" height="2428" viewBox="0 0 1016 2428" fill="none" xmlns="http://www.w3.org/2000/svg">
<path fill-rule="evenodd" clip-rule="evenodd" d="M877.042 2423.02C890.18 2398.22 913.513 2317.96 869.753 2233.33C882.891 2186.64 847.86 2176.41 833.282 2072.83C847.873 2042.18 858.08 2005.7 856.627 1964.85C853.709 1928.37 827.445 1910.87 812.854 1883.15C789.509 1789.75 776.383 1690.55 741.352 1603C729.692 1560.67 700.51 1524.2 680.07 1484.81C659.643 1379.75 649.435 1267.41 617.335 1168.19C623.385 1163.59 628.782 1158.19 633.379 1152.13C611.486 1063.14 579.386 933.27 532.694 893.867C544.354 850.094 561.876 799.032 567.713 759.63C588.127 731.914 611.473 701.266 656.711 680.839C680.057 745.039 690.277 825.296 703.403 889.484C732.585 953.684 773.439 1010.58 785.112 1068.96C710.705 1098.14 659.63 1166.73 659.63 1246.96C659.63 1350.56 742.805 1433.72 844.929 1433.72C920.815 1433.72 986.468 1385.56 1015.65 1319.91V2250.82C1015.66 2333.99 957.299 2404.04 877.042 2423.02V2423.02Z" fill="#FAFAFA"/>
<path fill-rule="evenodd" clip-rule="evenodd" d="M789.716 2425.78C760.534 2355.74 778.043 2297.38 783.88 2217.12C776.591 2180.65 770.741 2144.17 764.905 2109.16C724.063 2046.41 709.472 1989.51 699.252 1922.4C621.926 1853.82 531.449 1793.99 470.18 1719.59C360.741 1615.98 280.497 1509.46 225.052 1389.82C206.09 1388.38 187.128 1386.9 166.688 1386.9C131.669 1292.07 51.4254 1176.79 58.7144 1102.38C61.6326 1036.72 82.0599 976.9 106.858 909.781C84.9652 905.397 64.5508 912.7 41.2052 899.561C4.73424 876.216 10.5706 835.361 9.10502 798.877C25.1486 725.922 64.5507 664.64 90.8145 598.987C117.078 542.075 141.889 485.177 166.688 429.731C201.706 390.329 223.599 362.613 267.359 343.638C305.296 339.254 343.245 345.091 384.087 336.349C401.596 330.513 423.489 326.129 430.791 314.456C448.3 289.645 443.916 263.381 451.218 232.747C427.873 219.621 430.791 152.503 457.055 129.157C457.055 82.4659 476.017 19.7182 515.419 3.67457L176.908 0.756379C153.711 0.715368 130.734 5.25426 109.296 14.1127C87.857 22.9712 68.378 35.975 51.976 52.3782C35.574 68.7814 22.5717 88.2613 13.7148 109.701C4.85792 131.14 0.320682 154.117 0.363397 177.314V2250.67C0.320682 2273.87 4.85792 2296.85 13.7148 2318.29C22.5717 2339.73 35.574 2359.21 51.976 2375.61C68.378 2392.01 87.857 2405.02 109.296 2413.87C130.734 2422.73 153.711 2427.27 176.908 2427.23L789.716 2425.78V2425.78ZM112.682 1993.9H190.02L246.919 2176.27V1993.9H316.955V2298.84H238.164L179.8 2116.46V2298.84H112.682V1993.9ZM328.628 1993.9H419.092C537.273 1993.9 506.638 2136.86 462.865 2139.78C528.518 2132.51 537.273 2298.84 430.765 2298.84H328.628V1993.9ZM398.665 2043.49V2112.07H416.187C445.369 2112.07 445.369 2043.49 416.187 2043.49H398.665ZM398.665 2164.61V2249.23H416.187C449.74 2249.23 445.369 2164.61 416.187 2164.61H398.665ZM565.002 1993.9H658.384L712.365 2298.84H640.875L635.026 2244.86H585.429L576.662 2298.84H506.638L565.002 1993.9V1993.9ZM592.732 2190.87H629.202L610.228 2039.11L592.732 2190.87Z" fill="#FAFAFA"/>
<path fill-rule="evenodd" clip-rule="evenodd" d="M635.882 8.36966C685.491 55.0608 716.139 122.179 669.448 203.889C698.63 222.851 647.555 256.416 635.882 282.68C621.304 323.535 571.695 346.881 577.531 361.472C641.718 400.874 692.793 440.263 756.994 491.325C790.559 533.645 803.685 702.888 822.647 831.288C850.376 911.545 889.765 980.116 904.356 1070.58C955.431 1089.54 994.82 1128.94 1015.25 1175.64V177.612C1015.29 154.416 1010.75 131.44 1001.9 110.001C993.039 88.5623 980.036 69.0833 963.634 52.6811C947.232 36.2789 927.753 23.2764 906.314 14.4193C884.876 5.56226 861.899 1.02496 838.703 1.06768L635.882 8.36966V8.36966Z" fill="#FAFAFA"/>
</svg>
