<svg width="1016" height="2427" viewBox="0 0 1016 2427" fill="none" xmlns="http://www.w3.org/2000/svg">
<path fill-rule="evenodd" clip-rule="evenodd" d="M877.042 2422.26C890.18 2397.46 913.513 2317.2 869.753 2232.58C882.891 2185.89 847.86 2175.65 833.282 2072.08C847.873 2041.43 858.08 2004.94 856.627 1964.09C853.709 1927.62 827.445 1910.11 812.854 1882.39C789.509 1789 776.383 1689.79 741.352 1602.25C729.692 1559.91 700.51 1523.44 680.07 1484.05C659.642 1379 649.435 1266.65 617.335 1167.43C623.385 1162.83 628.782 1157.43 633.379 1151.38C611.486 1062.38 579.385 932.513 532.694 893.111C544.354 849.338 561.876 798.276 567.713 758.874C588.127 731.158 611.473 700.51 656.711 680.083C680.057 744.283 690.277 824.54 703.402 888.728C732.584 952.928 773.439 1009.83 785.112 1068.2C710.704 1097.39 659.629 1165.97 659.629 1246.2C659.629 1349.8 742.805 1432.96 844.929 1432.96C920.815 1432.96 986.467 1384.81 1015.65 1319.16V2250.06C1015.66 2333.23 957.299 2403.28 877.042 2422.26V2422.26Z" fill="#161616"/>
<path fill-rule="evenodd" clip-rule="evenodd" d="M789.716 2425.02C760.534 2354.99 778.043 2296.62 783.88 2216.36C776.591 2179.89 770.741 2143.41 764.905 2108.4C724.063 2045.66 709.472 1988.76 699.252 1921.64C621.926 1853.07 531.449 1793.24 470.18 1718.83C360.741 1615.23 280.497 1508.71 225.051 1389.06C206.09 1387.62 187.128 1386.14 166.688 1386.14C131.669 1291.31 51.4253 1176.03 58.7143 1101.63C61.6325 1035.96 82.0599 976.144 106.858 909.025C84.9651 904.641 64.5507 911.943 41.2052 898.805C4.73418 875.459 10.5705 834.605 9.10495 798.121C25.1486 725.166 64.5507 663.884 90.8145 598.231C117.078 541.319 141.889 484.421 166.688 428.975C201.706 389.573 223.599 361.857 267.359 342.882C305.295 338.498 343.245 344.335 384.087 335.593C401.596 329.757 423.489 325.373 430.791 313.7C448.3 288.889 443.916 262.625 451.218 231.99C427.873 218.865 430.791 151.747 457.055 128.401C457.055 81.7098 476.016 18.9621 515.419 2.91847L176.908 0.00027545C153.711 -0.0407355 130.734 4.49816 109.296 13.3566C87.8569 22.2151 68.378 35.2189 51.976 51.6221C35.574 68.0253 22.5717 87.5052 13.7148 108.945C4.85786 130.384 0.320621 153.361 0.363336 176.558V2249.92C0.320621 2273.11 4.85786 2296.09 13.7148 2317.53C22.5717 2338.97 35.574 2358.45 51.976 2374.85C68.378 2391.26 87.8569 2404.26 109.296 2413.12C130.734 2421.98 153.711 2426.52 176.908 2426.47L789.716 2425.02ZM112.682 1993.14H190.02L246.919 2175.51V1993.14H316.955V2298.09H238.164L179.8 2115.71V2298.09H112.682V1993.14ZM328.628 1993.14H419.092C537.273 1993.14 506.638 2136.11 462.865 2139.03C528.518 2131.75 537.273 2298.09 430.765 2298.09H328.628V1993.14ZM398.665 2042.74V2111.31H416.187C445.369 2111.31 445.369 2042.74 416.187 2042.74H398.665ZM398.665 2163.85V2248.48H416.187C449.74 2248.48 445.369 2163.85 416.187 2163.85H398.665ZM565.002 1993.14H658.384L712.365 2298.09H640.875L635.026 2244.11H585.429L576.662 2298.09H506.638L565.002 1993.14ZM592.731 2190.11H629.202L610.228 2038.35L592.731 2190.11Z" fill="#161616"/>
<path fill-rule="evenodd" clip-rule="evenodd" d="M635.882 7.61353C685.491 54.3047 716.139 121.423 669.448 203.133C698.63 222.095 647.555 255.66 635.882 281.924C621.304 322.779 571.695 346.124 577.531 360.715C641.718 400.118 692.793 439.507 756.994 490.569C790.559 532.889 803.685 702.131 822.647 830.532C850.376 910.789 889.765 979.36 904.356 1069.82C955.431 1088.79 994.82 1128.19 1015.25 1174.88V176.856C1015.29 153.66 1010.75 130.683 1001.9 109.245C993.039 87.8062 980.036 68.3271 963.634 51.925C947.232 35.5228 927.753 22.5202 906.314 13.6632C884.876 4.80612 861.899 0.268827 838.703 0.311548L635.882 7.61353V7.61353Z" fill="#161616"/>
</svg>
