<?xml version="1.0"?>
<svg xmlns="http://www.w3.org/2000/svg" xmlns:xlink="http://www.w3.org/1999/xlink" xmlns:svgjs="http://svgjs.com/svgjs" version="1.1" width="512" height="512" x="0" y="0" viewBox="0 0 384 384" style="enable-background:new 0 0 512 512" xml:space="preserve" class=""><g><path xmlns="http://www.w3.org/2000/svg" d="m0 384h320v-384h-320zm153.289062-134.910156-41.289062-61.929688v-40l-12.054688-18.097656 27.550782-33.0625h27.664062l27.726563 18.488281-39.597657 39.601563zm134.710938 102.910156h-66.078125l-30.425781-45.601562-14.792969-140.488282 24.839844-24.832031 23.417969 64.394531 30.070312-10.9375-33.792969-92.933594-40.613281-27.082031 21.261719-42.519531h86.113281zm-256-320h134.113281l-16 32h-37.601562l-52.449219 62.9375 19.9375 29.902344v40l103.433594 155.160156h-151.433594zm0 0" fill="#fafafa" data-original="#000000" style="" class=""/><path xmlns="http://www.w3.org/2000/svg" d="m224 224h32v32h-32zm0 0" fill="#fafafa" data-original="#000000" style="" class=""/></g></svg>
